<?xml version="1.0" encoding="UTF-8" standalone="no"?>
<!DOCTYPE svg PUBLIC "-//W3C//DTD SVG 1.1//EN"
 "http://www.w3.org/Graphics/SVG/1.1/DTD/svg11.dtd">
<!-- Generated by graphviz version 2.50.0 (0)
 -->
<!-- Title: G Pages: 1 -->
<svg width="429pt" height="288pt"
 viewBox="0.00 0.00 428.85 288.00" xmlns="http://www.w3.org/2000/svg" xmlns:xlink="http://www.w3.org/1999/xlink">
<g id="graph0" class="graph" transform="scale(0.97 0.97) rotate(0) translate(4 292)">
<title>G</title>
<polygon fill="white" stroke="transparent" points="-4,4 -4,-292 436.77,-292 436.77,4 -4,4"/>
<!-- u0 -->
<g id="node1" class="node">
<title>u0</title>
<ellipse fill="#bbffbb" stroke="black" stroke-width="0" cx="213.63" cy="-267" rx="34.39" ry="18"/>
<text text-anchor="middle" x="213.63" y="-263.3" font-family="Times,serif" font-size="14.00">Main</text>
</g>
<!-- u1 -->
<g id="node2" class="node">
<title>u1</title>
<ellipse fill="#bbffbb" stroke="black" stroke-width="0" cx="43.63" cy="-103" rx="42.49" ry="18"/>
<text text-anchor="middle" x="43.63" y="-99.3" font-family="Times,serif" font-size="14.00">Charts</text>
</g>
<!-- u0&#45;&gt;u1 -->
<g id="edge1" class="edge">
<title>u0&#45;&gt;u1</title>
<path fill="none" stroke="black" d="M186.6,-255.64C162.15,-245.22 126.29,-227.24 101.63,-203 80.31,-182.05 64.06,-151.66 54.26,-130.08"/>
<polygon fill="black" stroke="black" points="57.43,-128.61 50.21,-120.86 51.02,-131.42 57.43,-128.61"/>
</g>
<!-- u2 -->
<g id="node3" class="node">
<title>u2</title>
<ellipse fill="#bbffbb" stroke="black" stroke-width="0" cx="135.63" cy="-21" rx="60.39" ry="18"/>
<text text-anchor="middle" x="135.63" y="-17.3" font-family="Times,serif" font-size="14.00">QuoteData</text>
</g>
<!-- u0&#45;&gt;u2 -->
<g id="edge2" class="edge">
<title>u0&#45;&gt;u2</title>
<path fill="none" stroke="black" d="M190.26,-253.74C172.51,-242.99 149.37,-225.57 138.63,-203 114.77,-152.9 122.4,-85.8 129.43,-48.99"/>
<polygon fill="black" stroke="black" points="132.89,-49.52 131.46,-39.02 126.03,-48.12 132.89,-49.52"/>
</g>
<!-- u3 -->
<g id="node4" class="node">
<title>u3</title>
<ellipse fill="#bbffbb" stroke="black" stroke-width="0" cx="213.63" cy="-185" rx="65.79" ry="18"/>
<text text-anchor="middle" x="213.63" y="-181.3" font-family="Times,serif" font-size="14.00">HtmlReport</text>
</g>
<!-- u0&#45;&gt;u3 -->
<g id="edge3" class="edge">
<title>u0&#45;&gt;u3</title>
<path fill="none" stroke="black" d="M213.63,-248.64C213.63,-238.3 213.63,-224.94 213.63,-213.22"/>
<polygon fill="black" stroke="black" points="217.13,-213.05 213.63,-203.05 210.13,-213.05 217.13,-213.05"/>
</g>
<!-- u4 -->
<g id="node5" class="node">
<title>u4</title>
<ellipse fill="#bbffbb" stroke="black" stroke-width="0" cx="248.63" cy="-103" rx="61.99" ry="18"/>
<text text-anchor="middle" x="248.63" y="-99.3" font-family="Times,serif" font-size="14.00">StatReport</text>
</g>
<!-- u0&#45;&gt;u4 -->
<g id="edge4" class="edge">
<title>u0&#45;&gt;u4</title>
<path fill="none" stroke="black" d="M237.1,-253.79C254.91,-243.07 278.07,-225.66 288.63,-203 300.21,-178.15 285.06,-148.98 270.2,-128.77"/>
<polygon fill="black" stroke="black" points="272.83,-126.44 263.93,-120.69 267.3,-130.74 272.83,-126.44"/>
</g>
<!-- u5 -->
<g id="node6" class="node">
<title>u5</title>
<ellipse fill="#bbffbb" stroke="black" stroke-width="0" cx="385.63" cy="-185" rx="45.49" ry="18"/>
<text text-anchor="middle" x="385.63" y="-181.3" font-family="Times,serif" font-size="14.00">Params</text>
</g>
<!-- u0&#45;&gt;u5 -->
<g id="edge5" class="edge">
<title>u0&#45;&gt;u5</title>
<path fill="none" stroke="black" d="M238.64,-254.37C267.3,-241.04 314.59,-219.04 347.77,-203.61"/>
<polygon fill="black" stroke="black" points="349.56,-206.64 357.15,-199.25 346.61,-200.29 349.56,-206.64"/>
</g>
<!-- u1&#45;&gt;u2 -->
<g id="edge6" class="edge">
<title>u1&#45;&gt;u2</title>
<path fill="none" stroke="black" d="M61.37,-86.58C74.97,-74.74 93.96,-58.23 109.34,-44.86"/>
<polygon fill="black" stroke="black" points="111.75,-47.4 117,-38.2 107.15,-42.12 111.75,-47.4"/>
</g>
<!-- u3&#45;&gt;u2 -->
<g id="edge7" class="edge">
<title>u3&#45;&gt;u2</title>
<path fill="none" stroke="black" d="M203.3,-167.18C195.78,-154.66 185.57,-137.03 177.63,-121 165.71,-96.96 153.94,-68.71 145.9,-48.55"/>
<polygon fill="black" stroke="black" points="149.09,-47.11 142.17,-39.09 142.58,-49.68 149.09,-47.11"/>
</g>
<!-- u3&#45;&gt;u4 -->
<g id="edge8" class="edge">
<title>u3&#45;&gt;u4</title>
<path fill="none" stroke="black" d="M221.05,-167.03C225.74,-156.32 231.89,-142.27 237.19,-130.15"/>
<polygon fill="black" stroke="black" points="240.41,-131.51 241.22,-120.94 234,-128.7 240.41,-131.51"/>
</g>
<!-- u4&#45;&gt;u2 -->
<g id="edge9" class="edge">
<title>u4&#45;&gt;u2</title>
<path fill="none" stroke="black" d="M226.3,-86.19C209.12,-74.03 185.19,-57.09 166.23,-43.66"/>
<polygon fill="black" stroke="black" points="168.09,-40.69 157.91,-37.77 164.05,-46.41 168.09,-40.69"/>
</g>
</g>
</svg>
